Country: Bulgaria
Genre: Reality, Comedy, Drama, Family
Year: 2012
Runtime: 48mn
Audio: Bulgarian,Eng

Cast: PAMELA ANDERSON, Zlatka Dimitrova, Blagoi Ivanov, Orlin Pavlov, Funky

Plot: Vip Brother is version of Big Brother. This is reality show. Special guest in the show is Pamela Anderson. She will be on the show this season.

   

Quote:
Video
Format : Sorenson Spark
Codec ID : 2
Duration : 48mn 6s
Bit rate : 2 000 Kbps
Width : 640 pixels
Height : 480 pixels
Display aspect ratio : 4:3
Frame rate mode : Constant
Frame rate : 25.000 fps
Bit depth : 8 bits
Bits/(Pixel*Frame) : 0.260
Stream size : 688 MiB (94%)

Audio
Format : MPEG Audio
Format version : Version 1
Format profile : Layer 3
Mode : Joint stereo
Mode extension : MS Stereo
Codec ID : 2
Codec ID/Hint : MP3
Duration : 48mn 6s
Bit rate mode : Constant
Bit rate : 128 Kbps
Channel(s) : 2 channels
Sampling rate : 44.1 KHz
Compression mode : Lossy
Stream size : 45.7 MiB (6%)